<?xml version="1.0" encoding="UTF-8" standalone="no"?>
<!-- Created with Inkscape (http://www.inkscape.org/) -->

<svg
   xmlns:dc="http://purl.org/dc/elements/1.1/"
   xmlns:cc="http://creativecommons.org/ns#"
   xmlns:rdf="http://www.w3.org/1999/02/22-rdf-syntax-ns#"
   xmlns:svg="http://www.w3.org/2000/svg"
   xmlns="http://www.w3.org/2000/svg"
   xmlns:sodipodi="http://sodipodi.sourceforge.net/DTD/sodipodi-0.dtd"
   xmlns:inkscape="http://www.inkscape.org/namespaces/inkscape"
   width="182.49477mm"
   height="45.641041mm"
   viewBox="0 0 182.49477 45.641041"
   version="1.1"
   id="svg3931"
   inkscape:version="0.92.0 r"
   sodipodi:docname="Astrocast1.svg">
  <defs
     id="defs3925" />
  <sodipodi:namedview
     id="base"
     pagecolor="#ffffff"
     bordercolor="#666666"
     borderopacity="1.0"
     inkscape:pageopacity="0.0"
     inkscape:pageshadow="2"
     inkscape:zoom="0.7"
     inkscape:cx="242.05392"
     inkscape:cy="106.17948"
     inkscape:document-units="mm"
     inkscape:current-layer="layer1"
     showgrid="false"
     inkscape:window-width="1366"
     inkscape:window-height="742"
     inkscape:window-x="0"
     inkscape:window-y="0"
     inkscape:window-maximized="1" />
  <metadata
     id="metadata3928">
    <rdf:RDF>
      <cc:Work
         rdf:about="">
        <dc:format>image/svg+xml</dc:format>
        <dc:type
           rdf:resource="http://purl.org/dc/dcmitype/StillImage" />
        <dc:title></dc:title>
      </cc:Work>
    </rdf:RDF>
  </metadata>
  <g
     inkscape:label="Layer 1"
     inkscape:groupmode="layer"
     id="layer1"
     transform="translate(59.012963,-137.35209)">
    <text
       xml:space="preserve"
       style="font-style:normal;font-variant:normal;font-weight:normal;font-stretch:normal;font-size:34.71688461px;line-height:4.96538305px;font-family:Impact;-inkscape-font-specification:Impact;letter-spacing:0px;word-spacing:0px;fill:#d45500;fill-opacity:1;stroke:#000000;stroke-width:0.29726183;"
       x="20.572691"
       y="132.9476"
       id="text87"
       transform="scale(0.7488342,1.3354091)"><tspan
         sodipodi:role="line"
         id="tspan85"
         x="20.572691"
         y="132.9476"
         style="font-style:normal;font-variant:normal;font-weight:normal;font-stretch:normal;font-size:34.71688461px;line-height:4.96538305px;font-family:Impact;-inkscape-font-specification:Impact;fill:#d45500;fill-opacity:1;stroke:#000000;stroke-width:0.29726183;">Astrocast</tspan></text>
    <path
       style="opacity:1;vector-effect:none;fill:#d45500;fill-opacity:1;stroke:#000000;stroke-width:0.09012487px;stroke-linecap:butt;stroke-linejoin:miter;stroke-miterlimit:4;stroke-dasharray:none;stroke-dashoffset:0;stroke-opacity:1"
       d="m -41.970853,154.29484 -3.178603,1.46702 -3.491873,1.98225 -2.479313,1.63425 -1.906896,1.64386 -1.565396,1.57641 -1.101412,1.61264 -0.611293,1.56652 -0.244791,1.41813 0.24492,1.1807 0.684065,1.293 0.608574,0.58671 1.234043,0.95421 1.27226,0.75035 2.187035,0.84 1.678204,0.41035 2.196896,0.43972 2.363092,0.36171 2.411759,0.0989 2.008706,0.11841 2.1196,0.0431 -1.705517,-2.31133 -3.011756,-0.15378 -3.224478,-0.42427 -3.11213,-0.735 -2.796277,-1.1012 -1.208682,-0.59359 -0.93887,-0.68821 -0.361774,-1.10629 0.206598,-1.22171 0.589487,-1.00046 1.462257,-1.55875 2.159995,-1.90289 2.907845,-1.89923 2.206625,-1.2497 1.919069,-0.99817 z"
       id="path76-0"
       inkscape:connector-curvature="0"
       sodipodi:nodetypes="ccccccccccccccccccccccccccccccccccccc" />
    <path
       style="opacity:1;vector-effect:none;fill:#d45500;fill-opacity:1;stroke:#000000;stroke-width:0.09012487px;stroke-linecap:butt;stroke-linejoin:miter;stroke-miterlimit:4;stroke-dasharray:none;stroke-dashoffset:0;stroke-opacity:1"
       d="m -23.541398,170.60758 3.585807,-0.74791 3.307598,-0.7173 3.972305,-1.01413 4.6255157,-1.38939 2.3466612,-0.79852 4.82600661,-2.00027 2.99700969,-1.40032 3.2494122,-1.62895 3.6881215,-2.50879 2.2894221,-2.35325 0.791783,-1.2035 0.36399,-1.40702 -0.219945,-0.89149 -0.571113,-0.75809 -0.878299,-0.67414 -1.5341969,-0.73763 -1.9187035,-0.68392 -1.7771821,-0.46473 -4.307298,-0.57049 -3.4038219,-0.23414 -1.5997317,-2.44855 2.91578256,4e-5 3.15837134,0.21034 2.740672,0.34463 2.4678782,0.50634 2.65871,0.87458 2.337119,1.03035 1.323186,1.35442 0.937375,1.17574 0.494401,2.05769 -0.772126,2.63468 -1.564315,2.02346 -3.574147,3.2884 -8.0625303,4.44694 -8.1436317,3.13301 -9.420727,2.71088 -6.770854,1.20707 z"
       id="path78-4"
       inkscape:connector-curvature="0"
       sodipodi:nodetypes="ccccccccccccccccccccccccccccccccccccccc" />
    <path
       style="opacity:1;vector-effect:none;fill:#d45500;fill-opacity:1;stroke:#000000;stroke-width:0.09012487px;stroke-linecap:butt;stroke-linejoin:miter;stroke-miterlimit:4;stroke-dasharray:none;stroke-dashoffset:0;stroke-opacity:1"
       d="m -21.284202,138.10804 -2.034854,0.15648 -2.032389,0.33428 -1.982735,0.52139 -1.822393,0.64971 -1.893846,0.93732 -1.394831,0.75586 -1.530359,1.0139 -1.698478,1.46102 -1.349747,1.39253 -1.794054,2.1931 -1.363495,2.18394 -0.629117,1.27089 -0.576481,1.38567 -0.49691,1.43427 -0.332515,1.41682 -0.427041,3.72997 0.07538,4.10297 0.289384,1.94948 0.508181,1.81394 0.81746,2.19186 0.945611,1.80691 0.400334,0.40835 2.497948,0.0885 2.73871,-0.19752 2.536787,-0.31135 2.886902,-0.23899 2.95078,-0.31331 2.32217,-0.38187 -0.179626,-1.20589 -0.179017,-1.5414 -0.455736,-3.6467 -0.261568,-3.41788 0.108261,-2.94492 0.331976,-3.01072 0.609227,-3.62119 0.784009,-3.16335 1.792643,-4.66571 2.308576,-4.52474 z m -2.257196,32.49954 1.9e-5,-2e-5 c -0.901281,0.0827 -1.585219,0.18837 -2.453781,0.29889 -1.020571,0.12985 -2.225856,0.26633 -3.299589,0.37951 -0.900992,0.095 -2.028773,0.17169 -2.978523,0.24097 -1.012463,0.0739 -2.078528,0.18542 -3.063357,0.25594 -0.697,0.0499 -1.102546,0.0687 -1.782258,0.0996 -0.616276,0.0281 -1.507357,0.0707 -2.127984,0.0794 v 0 l 0.30999,0.57965 1.168632,1.52385 1.58546,1.83665 1.275123,1.18976 1.939617,1.47666 2.010035,1.29132 1.810413,0.77257 1.397288,0.47756 1.605703,0.4487 1.563803,0.35627 2.949662,0.3223 2.769755,-0.0688 -1.336026,-2.80303 -1.4985,-3.09839 -1.127627,-3.05791 z"
       id="path3721-9"
       inkscape:connector-curvature="0"
       sodipodi:nodetypes="ccccccccccccccccccccccccccccccccccccccccccssscscccccccccccccccccc" />
  </g>
</svg>
