<?xml version="1.0" encoding="UTF-8" standalone="no"?>
<!-- Created with Inkscape (http://www.inkscape.org/) -->

<svg
   xmlns:dc="http://purl.org/dc/elements/1.1/"
   xmlns:cc="http://creativecommons.org/ns#"
   xmlns:rdf="http://www.w3.org/1999/02/22-rdf-syntax-ns#"
   xmlns:svg="http://www.w3.org/2000/svg"
   xmlns="http://www.w3.org/2000/svg"
   xmlns:sodipodi="http://sodipodi.sourceforge.net/DTD/sodipodi-0.dtd"
   xmlns:inkscape="http://www.inkscape.org/namespaces/inkscape"
   width="164.07399mm"
   height="137.41846mm"
   viewBox="0 0 164.07399 137.41846"
   version="1.1"
   id="svg3865"
   sodipodi:docname="favicon.svg"
   inkscape:version="0.92.0 r">
  <defs
     id="defs3859" />
  <sodipodi:namedview
     id="base"
     pagecolor="#ffffff"
     bordercolor="#666666"
     borderopacity="1.0"
     inkscape:pageopacity="0.0"
     inkscape:pageshadow="2"
     inkscape:zoom="0.35"
     inkscape:cx="-132.86914"
     inkscape:cy="323.96102"
     inkscape:document-units="mm"
     inkscape:current-layer="layer1"
     showgrid="false"
     inkscape:window-width="1366"
     inkscape:window-height="742"
     inkscape:window-x="0"
     inkscape:window-y="0"
     inkscape:window-maximized="1" />
  <metadata
     id="metadata3862">
    <rdf:RDF>
      <cc:Work
         rdf:about="">
        <dc:format>image/svg+xml</dc:format>
        <dc:type
           rdf:resource="http://purl.org/dc/dcmitype/StillImage" />
        <dc:title></dc:title>
      </cc:Work>
    </rdf:RDF>
  </metadata>
  <g
     inkscape:label="Layer 1"
     inkscape:groupmode="layer"
     id="layer1"
     transform="translate(-22.323595,-77.23087)">
    <g
       id="g145"
       style="stroke:none"
       transform="matrix(0.14394649,0,0,0.14394649,-295.67447,-10.803066)">
      <rect
         y="611.57404"
         x="2209.7356"
         height="953.79974"
         width="1138.7189"
         id="rect118"
         style="fill:#f8bc00;fill-opacity:1;stroke:none" />
    </g>
    <path
       style="opacity:1;vector-effect:none;fill:#e69500;fill-opacity:1;stroke:none;stroke-width:0.1439465px;stroke-linecap:butt;stroke-linejoin:miter;stroke-miterlimit:4;stroke-dasharray:none;stroke-dashoffset:0;stroke-opacity:1"
       d="m 22.323595,164.82603 145.735755,17.59406 -44.57816,32.20413 -101.071968,-0.0973 z"
       id="path3817"
       inkscape:connector-curvature="0"
       sodipodi:nodetypes="ccccc" />
    <path
       style="opacity:1;vector-effect:none;fill:#de7a00;fill-opacity:1;stroke:none;stroke-width:0.1439465px;stroke-linecap:butt;stroke-linejoin:miter;stroke-miterlimit:4;stroke-dasharray:none;stroke-dashoffset:0;stroke-opacity:1"
       d="m 123.48119,214.62422 c -0.95865,0.0368 44.99532,-32.517 44.99532,-32.517 L 145.21484,214.649 Z"
       id="path3819"
       inkscape:connector-curvature="0"
       sodipodi:nodetypes="cccc" />
    <path
       style="opacity:1;vector-effect:none;fill:#cc5a00;fill-opacity:1;stroke:none;stroke-width:0.1439465px;stroke-linecap:butt;stroke-linejoin:miter;stroke-miterlimit:4;stroke-dasharray:none;stroke-dashoffset:0;stroke-opacity:1"
       d="m 145.21484,214.649 17.51121,-0.0482 5.3333,-32.18065 c 0,0 -23.67882,32.33321 -22.84451,32.22892 z"
       id="path3821"
       inkscape:connector-curvature="0"
       sodipodi:nodetypes="cccc" />
    <path
       style="opacity:1;vector-effect:none;fill:#a77c2e;fill-opacity:1;stroke:none;stroke-width:0.1439465px;stroke-linecap:butt;stroke-linejoin:miter;stroke-miterlimit:4;stroke-dasharray:none;stroke-dashoffset:0;stroke-opacity:1"
       d="m 170.45143,168.02644 c 0,0 -8.76827,46.5743 -7.72538,46.5743 l 17.55085,-0.14749 c 0.62574,0 -9.82547,-46.42681 -9.82547,-46.42681 z"
       id="path3823"
       inkscape:connector-curvature="0"
       sodipodi:nodetypes="cccc" />
    <path
       style="opacity:1;vector-effect:none;fill:#eee0bb;fill-opacity:1;stroke:none;stroke-width:0.1439465px;stroke-linecap:butt;stroke-linejoin:miter;stroke-miterlimit:4;stroke-dasharray:none;stroke-dashoffset:0;stroke-opacity:1"
       d="m 170.45143,168.02644 15.8724,7.1955 V 214.527 l -6.04693,-0.0738 z"
       id="path3825"
       inkscape:connector-curvature="0" />
    <path
       style="opacity:1;vector-effect:none;fill:#f4aa00;fill-opacity:1;stroke:none;stroke-width:0.1439465px;stroke-linecap:butt;stroke-linejoin:miter;stroke-miterlimit:4;stroke-dasharray:none;stroke-dashoffset:0;stroke-opacity:1"
       d="m 170.45143,168.02644 3.63106,-8.14305 12.31509,5.53072 -0.0738,9.80783 z"
       id="path3827"
       inkscape:connector-curvature="0" />
    <path
       style="opacity:1;vector-effect:none;fill:#ffffff;fill-opacity:1;stroke:none;stroke-width:0.21169968px;stroke-linecap:butt;stroke-linejoin:miter;stroke-miterlimit:4;stroke-dasharray:none;stroke-dashoffset:0;stroke-opacity:1"
       d="m 57.074463,128.03324 -7.051671,3.64865 -7.746663,4.93006 -5.500281,4.06458 -4.230433,4.08847 -3.472797,3.9207 -2.443457,4.01081 -1.356145,3.8961 -0.543081,3.52706 0.543377,2.93653 1.517584,3.21582 1.350114,1.45921 2.737673,2.37326 2.8225,1.86621 4.851881,2.08915 3.723065,1.02057 4.873811,1.09366 5.242503,0.89959 5.350388,0.24598 4.456292,0.29452 4.702262,0.10735 -3.783648,-5.74851 -6.681488,-0.38249 -7.153471,-1.05522 -6.904191,-1.82803 -6.203486,-2.7388 -2.681444,-1.47634 -2.08288,-1.71166 -0.802614,-2.75147 0.458364,-3.03852 1.307766,-2.48823 3.243977,-3.87682 4.791935,-4.73265 6.451024,-4.72363 4.895324,-3.10814 4.25744,-2.48255 z"
       id="path76"
       inkscape:connector-curvature="0"
       sodipodi:nodetypes="ccccccccccccccccccccccccccccccccccccc" />
    <path
       style="opacity:1;vector-effect:none;fill:#ffffff;fill-opacity:1;stroke:none;stroke-width:0.21169968px;stroke-linecap:butt;stroke-linejoin:miter;stroke-miterlimit:4;stroke-dasharray:none;stroke-dashoffset:0;stroke-opacity:1"
       d="m 97.959868,168.60485 7.955032,-1.86013 7.33781,-1.78402 8.81252,-2.52225 10.26164,-3.45555 5.206,-1.98606 10.70644,-4.97487 6.64877,-3.48272 7.20879,-4.05141 8.18202,-6.23965 5.07901,-5.85278 1.75658,-2.99323 0.80748,-3.49943 -0.48789,-2.21722 -1.26703,-1.88547 -1.9485,-1.67665 -3.40355,-1.83458 -4.25665,-1.70097 -3.94265,-1.15587 -9.55564,-1.41884 -7.55131,-0.58234 -3.54894,-6.08982 6.4686,10e-5 7.00678,0.52312 6.08011,0.85715 5.47493,1.25933 5.28373,1.83067 4.36548,1.98845 3.54997,3.71309 2.79658,4.30219 1.19923,4.31386 -1.71296,6.55276 -3.47037,5.03255 -7.92917,8.17863 -17.88658,11.06006 -18.06652,7.79214 -20.89971,6.74228 -15.020951,3.00209 z"
       id="path78"
       inkscape:connector-curvature="0"
       sodipodi:nodetypes="ccccccccccccccccccccccccccccccccccccccc" />
    <path
       style="opacity:1;vector-effect:none;fill:#ffffff;fill-opacity:1;stroke:none;stroke-width:0.21169968px;stroke-linecap:butt;stroke-linejoin:miter;stroke-miterlimit:4;stroke-dasharray:none;stroke-dashoffset:0;stroke-opacity:1"
       d="m 102.96738,87.774835 -4.514224,0.389196 -4.508804,0.831387 -4.398725,1.296758 -4.042918,1.615897 -4.201474,2.331229 -3.094423,1.879927 -3.395066,2.521682 -3.767989,3.633669 -2.994444,3.46341 -3.980044,5.45449 -3.024894,5.43169 -1.395696,3.16087 -1.278906,3.44631 -1.10239,3.56716 -0.737678,3.5238 -0.947398,9.27685 0.167196,10.20454 0.641975,4.84861 1.127401,4.51145 1.813511,5.45142 2.097793,4.49396 0.888164,1.01565 5.541664,0.21993 6.07572,-0.49126 5.62785,-0.7744 6.40451,-0.59436 6.546299,-0.77922 5.15169,-0.94977 -0.398517,-2.99919 -0.397157,-3.83364 -1.011028,-9.06976 -0.580285,-8.50066 0.240147,-7.32429 0.736516,-7.48803 1.351529,-9.0063 1.739331,-7.8676 3.976954,-11.604169 5.12153,-11.253529 z m -5.007512,80.830015 3.3e-5,-5e-5 c -1.999468,0.20556 -3.516756,0.46849 -5.44368,0.74336 -2.264089,0.32299 -4.93799,0.66237 -7.320075,0.9439 -1.99881,0.23622 -4.500811,0.427 -6.607803,0.59933 -2.246096,0.18374 -4.611153,0.46115 -6.795986,0.63655 -1.546258,0.12416 -2.445969,0.17061 -3.953892,0.24779 -1.367187,0.07 -3.344056,0.17588 -4.72087,0.19746 v 0 l 0.6877,1.44163 2.592561,3.78999 3.517304,4.56795 2.828882,2.95905 4.303021,3.67264 4.459165,3.21169 4.016394,1.92146 3.099829,1.18775 3.56224,1.11592 3.469288,0.88611 6.543721,0.8016 6.14467,-0.17116 -2.96393,-6.97148 -3.3244,-7.70603 -2.50163,-7.60534 z"
       id="path3721"
       inkscape:connector-curvature="0"
       sodipodi:nodetypes="ccccccccccccccccccccccccccccccccccccccccccssscscccccccccccccccccc" />
  </g>
</svg>
